<?xml version="1.0" encoding="UTF-8" standalone="no"?>
<svg
   xmlns:dc="http://purl.org/dc/elements/1.1/"
   xmlns:cc="http://creativecommons.org/ns#"
   xmlns:rdf="http://www.w3.org/1999/02/22-rdf-syntax-ns#"
   xmlns:svg="http://www.w3.org/2000/svg"
   xmlns="http://www.w3.org/2000/svg"
   viewBox="0 0 357.33334 288"
   height="288"
   width="357.33334"
   xml:space="preserve"
   id="svg2"
   version="1.1"><metadata
     id="metadata8"><rdf:RDF><cc:Work
         rdf:about=""><dc:format>image/svg+xml</dc:format><dc:type
           rdf:resource="http://purl.org/dc/dcmitype/StillImage" /></cc:Work></rdf:RDF></metadata><defs
     id="defs6" /><g
     transform="matrix(1.3333333,0,0,-1.3333333,0,288)"
     id="g10"><g
       transform="scale(0.1)"
       id="g12"><path
         id="path14"
         style="fill:#9cc233;fill-opacity:1;fill-rule:evenodd;stroke:none"
         d="m 837.852,631.762 c -8.204,12.648 -11.012,26.289 -8.403,40.859 l 118.711,591.479 64.42,45.35 c 7.5,-16.05 11.8,-38.83 12.93,-68.32 0,-0.74 0,-9.72 0,-26.87 0,-16.8 0.15,-38.13 0.54,-63.91 0,-25.7 0,-52.07 0,-78.9 0,-26.92 0.2,-50.24 0.55,-70.04 0,-20.16 0,-32.859 0,-38.129 -19.8,-5.582 -35.272,-16.949 -46.479,-34.14 C 968.52,911.559 962.73,891.211 962.73,868.09 V 714.609 c 0.391,-30.23 8.989,-57.89 25.79,-82.847 l 73.94,-109.223 c -42.97,-9.73 -83.48,-21.488 -121.562,-35.309 L 837.852,631.762 m 243.668,236.867 5,-61.598 c 2.66,-29.883 12.7,-57.152 30.24,-81.801 l 126.05,-178.628 c -49.69,-3.75 -97.3,-9.922 -142.85,-18.481 l -88.48,129.93 c -8.55,12.687 -12.89,26.519 -12.89,41.437 l -0.539,166.371 c 0.347,19.762 4.879,35.082 13.429,45.942 8.6,10.82 18.48,16.398 29.69,16.789 11.6,0 20.9,-5.231 28.01,-15.699 7.46,-10.821 11.6,-25.551 12.34,-44.262 M 1549.77,603.16 c 4.45,-2.609 9.14,-3.359 13.98,-2.219 4.88,1.09 8.79,3.707 11.76,7.809 l 114.8,169.73 c 16.8,25 25.43,52.61 25.78,82.891 l 0.59,153.469 c 0,23.17 -5.78,43.52 -17.38,61.06 -11.57,17.54 -27.27,28.9 -47.03,34.18 0,5.19 0.15,17.54 0.54,36.95 0,19.42 0,42.03 0,67.74 0.35,26.17 0.59,52.14 0.59,77.89 l 117.62,-83.48 78.94,-389.801 c 2.62,-14.578 -0.35,-28.008 -8.94,-40.359 L 1636.6,491.719 c -45.58,11.211 -93.59,19.961 -143.98,26.293 -50.39,6.008 -102.89,8.976 -157.39,8.976 -6.71,0 -13.63,0 -20.7,0 l 247.54,347.813 c 17.19,24.648 27.07,52.078 29.69,82.347 l 5.04,61.052 c 1.09,18.68 5.23,33.4 12.3,44.26 7.15,10.47 16.45,15.66 28.01,15.66 11.21,-0.35 21.13,-5.93 29.73,-16.79 8.55,-10.47 13,-25.78 13.39,-45.9 l -0.54,-166.371 c 0,-14.918 -4.1,-28.75 -12.31,-41.438 L 1544.69,627.809 c -2.58,-4.137 -3.56,-8.59 -2.81,-13.43 1.13,-4.539 3.78,-8.25 7.89,-11.219" /><path
         id="path16"
         style="fill:#114261;fill-opacity:1;fill-rule:evenodd;stroke:none"
         d="m 919.059,486.641 c 38.089,14.218 78.601,26.168 121.531,35.898 l -73.91,108.633 c -16.801,25.387 -25.391,53.047 -25.782,82.887 V 868.09 c 0,23.121 5.622,43.469 16.801,61.051 11.602,17.191 27.262,28.558 47.071,34.14 0,5.27 0,17.969 0,38.129 -0.36,19.8 -0.59,43.12 -0.59,70.04 0,26.44 0,52.61 0,78.39 -0.35,25.75 -0.51,47.23 -0.51,64.42 0,17.15 0,26.13 0,26.87 -1.13,29.49 -5.432,52.27 -12.932,68.32 L 926.328,1264.1 807.621,672.621 c -3.012,-14.922 -0.199,-28.601 8.399,-40.859 L 919.059,486.641 M 1019.88,931.41 c -11.17,-0.39 -21.091,-6.019 -29.681,-16.801 -8.597,-10.859 -12.898,-26.371 -12.898,-46.519 V 702.27 c 0,-15.282 4.301,-29.11 12.898,-41.411 l 88.511,-130.507 c 45.55,8.988 93.17,15.308 142.81,19.027 L 1095.51,727.5 c -17.54,25 -27.66,52.461 -30.24,82.34 l -4.49,61.609 c -1.09,18.672 -5.43,33.199 -12.89,43.672 -7.07,10.859 -16.44,16.289 -28.01,16.289 m 0.59,398.75 c 11.56,-20.9 18.08,-50.24 19.61,-87.89 0,-0.75 -0.24,-9.54 -0.59,-26.37 0,-17.19 -0.15,-38.63 -0.54,-64.38 0,-25.78 0,-52.11 0,-78.98 -0.4,-26.52 -0.4,-49.84 0,-70.04 0,-19.77 0.15,-32.461 0.54,-38.051 13.44,-3.398 24.26,-10.109 32.46,-20.187 8.25,-9.731 14.18,-20.903 17.97,-33.602 4.1,-12.34 6.33,-24.64 6.68,-36.988 l 6.17,-73.363 c 1.14,-15.27 5.98,-29.098 14.57,-41.438 l 142.27,-199.922 266.05,372.961 c 8.95,12.738 13.99,26.531 15.12,41.488 l 6.17,73.362 c 0.35,12.34 2.43,24.84 6.14,37.54 4.1,12.34 10.11,23.55 17.93,33.59 8.24,9.73 19.06,16.25 32.5,19.61 0.39,4.45 0.74,13.83 1.13,28.01 0,14.57 0,31.95 0,52.07 0,20.15 0,41.25 0,63.32 -0.39,21.99 -0.59,42.93 -0.59,62.69 l -282.26,198.87 -301.33,-212.3 M 1530.7,654.141 1653.4,833.91 c 8.55,12.731 12.85,26.52 12.85,41.481 v 166.329 c -0.39,19.76 -4.84,35.08 -13.44,45.94 -8.55,10.82 -18.28,16.4 -29.14,16.79 -11.56,0 -20.9,-5.23 -28.01,-15.7 -7.42,-10.82 -11.75,-25.55 -12.85,-44.22 l -5.04,-61.639 c -2.26,-29.84 -12.15,-57.11 -29.72,-81.762 L 1300.51,552.77 c 7.11,0.351 14.18,0.55 21.29,0.55 54.1,0 106.4,-3.199 156.83,-9.531 50.78,-6.019 98.91,-14.57 144.46,-25.777 l 204.45,286.789 c 8.24,12.308 11.01,25.937 8.4,40.859 l -78.4,389.85 -118.16,82.89 c 0,-25.39 0,-51.17 0,-77.27 -0.4,-26.13 -0.55,-48.75 -0.55,-67.77 0,-19.45 0,-31.76 0,-36.99 19.76,-5.59 35.27,-16.99 46.44,-34.14 11.61,-17.54 17.39,-37.93 17.39,-61.1 l -0.59,-154.021 c 0,-14.531 -2.03,-28.91 -6.13,-43.089 -4.49,-14.18 -10.82,-27.258 -19.06,-39.219 l -115.4,-169.723 c -2.96,-4.488 -6.87,-7.109 -11.71,-7.848 -4.5,-1.101 -8.99,-0.351 -13.48,2.219 -4.45,3.051 -7.07,6.762 -7.85,11.211 -1.1,4.5 -0.35,8.988 2.26,13.481 M 729.73,380.781 c 41.09,35.508 92.649,66.289 154.61,92.418 L 790.82,604.84 c -8.629,11.922 -14.41,25 -17.379,39.18 -2.972,13.832 -2.972,28.011 0,42.582 l 109.797,547.268 -75.617,-53.79 c -8.949,-5.98 -18.32,-8.05 -28.012,-6.17 -10.121,1.48 -18.32,6.52 -24.687,15.15 -5.942,8.91 -8.012,18.28 -6.094,28.01 1.832,10.04 7.07,18.28 15.66,24.61 l 535.472,377.5 c 6.68,4.49 13.99,6.76 21.84,6.76 7.81,0 15.11,-2.27 21.83,-6.76 l 535.47,-377.5 c 8.56,-6.33 13.83,-14.57 15.67,-24.61 1.52,-9.73 -0.75,-19.1 -6.72,-28.01 -3.75,-5.27 -8.21,-9.14 -13.44,-11.79 -5.23,-2.62 -10.82,-3.91 -16.8,-3.91 -7.85,0 -15.11,2.23 -21.87,6.72 l -35.28,24.65 69.46,-345.039 c 2.97,-14.179 2.97,-28.363 0,-42.582 -2.97,-13.789 -8.75,-26.718 -17.39,-38.629 L 1660.66,507.969 c 52.62,-15.348 100.24,-33.629 142.82,-54.918 42.93,-21.68 79.72,-45.75 110.35,-72.27 -79.14,36.25 -168.99,64.418 -269.42,84.61 -100.82,20.507 -208.36,30.781 -322.61,30.781 -114.65,-0.391 -222.19,-10.621 -322.659,-30.781 -100.43,-20.192 -190.231,-48.36 -269.411,-84.61 m 466.6,620.079 h 84.57 c 3.75,0 6.72,1.29 8.94,3.87 2.27,2.3 3.56,5.27 3.95,8.98 v 84.02 c -0.39,3.75 -1.68,6.72 -3.95,8.95 -2.57,2.66 -5.58,3.94 -8.94,3.94 h -84.57 c -3.36,0 -6.33,-1.28 -8.99,-3.94 -2.22,-2.23 -3.36,-5.2 -3.36,-8.95 v -84.02 c 0,-3.71 1.14,-6.68 3.36,-8.98 2.66,-2.58 5.63,-3.87 8.99,-3.87 m 166.33,162.42 h 84.02 c 3.75,0 6.91,1.29 9.53,3.91 2.23,2.26 3.36,5.23 3.36,8.94 v 84.03 c 0,3.75 -1.13,6.75 -3.36,8.98 -2.62,2.62 -5.78,3.91 -9.53,3.91 h -84.02 c -3.71,0 -6.68,-1.29 -8.95,-3.91 -2.62,-2.23 -3.91,-5.23 -3.91,-8.98 v -84.03 c 0,-3.71 1.29,-6.68 3.91,-8.94 2.27,-2.62 5.24,-3.91 8.95,-3.91 m 0,-162.42 h 84.02 c 3.75,0 6.91,1.29 9.53,3.87 2.23,2.3 3.36,5.27 3.36,8.98 v 84.02 c 0,3.75 -1.13,6.72 -3.36,8.95 -2.62,2.66 -5.78,3.94 -9.53,3.94 h -84.02 c -3.71,0 -6.68,-1.28 -8.95,-3.94 -2.62,-2.23 -3.91,-5.2 -3.91,-8.95 v -84.02 c 0,-3.71 1.29,-6.68 3.91,-8.98 2.27,-2.58 5.24,-3.87 8.95,-3.87 m -178.68,175.27 v 84.03 c 0,3.75 1.14,6.75 3.36,8.98 2.66,2.62 5.63,3.91 8.99,3.91 h 84.57 c 3.75,0 6.72,-1.29 8.94,-3.91 2.27,-2.23 3.56,-5.23 3.95,-8.98 v -84.03 c -0.39,-3.71 -1.68,-6.68 -3.95,-8.94 -2.57,-2.62 -5.58,-3.91 -8.94,-3.91 h -84.57 c -3.36,0 -6.33,1.29 -8.99,3.91 -2.22,2.26 -3.36,5.23 -3.36,8.94" /><path
         id="path18"
         style="fill:#27396d;fill-opacity:1;fill-rule:nonzero;stroke:none"
         d="m 242.379,2127.34 v -294.68 h 30.32 V 1800 h -98.91 v 32.66 h 29.223 v 137.18 H 69.5703 V 1832.66 H 98.9492 V 1800 H 0.0390625 v 32.66 H 30.1992 v 294.68 H 0.0390625 V 2160 H 98.9492 v -32.66 H 69.5703 V 2002.03 H 203.012 v 125.31 H 173.789 V 2160 h 98.91 v -32.66 z m 125,-327.34 c -16.359,0 -27.93,3.75 -34.68,11.25 -6.679,7.5 -10,17.97 -10,31.41 v 154.68 c 0,12.7 2.961,22.97 8.903,30.78 5.937,7.9 17.847,11.88 35.777,11.88 h 88.75 c 17.582,0 29.422,-3.98 35.473,-11.88 6.128,-7.81 9.218,-18.08 9.218,-30.78 v -154.68 c 0,-13.44 -3.398,-23.91 -10.16,-31.41 -6.68,-7.5 -18.199,-11.25 -34.531,-11.25 z m -5.777,32.66 h 100.309 v 174.68 H 361.602 Z" /><path
         id="path20"
         style="fill:#27396d;fill-opacity:1;fill-rule:nonzero;stroke:none"
         d="m 607.379,1799.06 c -25,0 -37.5,12.27 -37.5,36.88 v 171.87 h -30.617 v 32.66 h 69.527 v -207.81 l 95.621,60 v 115.15 h -23.59 v 32.66 h 62.34 v -207.81 h 30.32 V 1800 h -69.07 v 53.75 l -79.68,-49.84 c -5.121,-3.25 -10.902,-4.85 -17.351,-4.85 z" /><path
         id="path22"
         style="fill:#27396d;fill-opacity:1;fill-rule:nonzero;stroke:none"
         d="m 812.07,1800 v 33.12 l 132.969,174.22 h -97.5 v -34.06 H 814.41 V 2040 h 172.352 v -34.06 L 854.73,1832.66 h 102.34 v 33.12 h 33.59 V 1800 Z" /><path
         id="path24"
         style="fill:#27396d;fill-opacity:1;fill-rule:nonzero;stroke:none"
         d="m 1241.13,1800 c -16.36,0 -27.93,3.75 -34.68,11.25 -6.68,7.5 -10,17.97 -10,31.41 v 154.68 c 0,12.7 2.96,22.97 8.9,30.78 5.94,7.9 17.85,11.88 35.78,11.88 h 88.75 c 17.58,0 29.42,-3.98 35.47,-11.88 6.13,-7.81 9.22,-18.08 9.22,-30.78 v -154.68 c 0,-13.44 -3.4,-23.91 -10.16,-31.41 -6.68,-7.5 -18.2,-11.25 -34.53,-11.25 z m -5.78,32.66 h 100.309 v 174.68 H 1235.35 Z" /><path
         id="path26"
         style="fill:#27396d;fill-opacity:1;fill-rule:nonzero;stroke:none"
         d="m 1488.79,2005.47 v -172.81 h 38.91 V 1800 h -114.69 v 32.66 h 38.44 v 172.81 h -38.44 V 2040 h 38.44 v 70.16 c 0,18.2 3.47,31.09 10.46,38.59 7.07,7.5 17.82,11.25 32.19,11.25 h 39.85 v -32.66 h -45.16 V 2040 h 38.91 v -34.53 z" /><path
         id="path28"
         style="fill:#27396d;fill-opacity:1;fill-rule:nonzero;stroke:none"
         d="m 1919.26,2160 c 23.63,0 40,-5.23 49.06,-15.62 9.14,-10.43 13.75,-26.18 13.75,-47.19 v -234.38 c 0,-22.11 -5.12,-38.08 -15.31,-47.97 -10.24,-9.92 -26.06,-14.84 -47.5,-14.84 h -169.53 v 32.66 h 30.31 v 294.68 h -30.31 V 2160 Z m 23.44,-32.66 H 1819.411 V 1832.66 H 1942.7 Z" /><path
         id="path30"
         style="fill:#27396d;fill-opacity:1;fill-rule:nonzero;stroke:none"
         d="m 2233.79,2040 v -303.91 c 0,-13.43 -3.28,-23.63 -9.84,-30.62 -6.49,-7.07 -17.9,-10.63 -34.22,-10.63 h -110.94 v 65.32 h 32.66 v -32.19 h 83.12 v 126.25 l -84.53,-52.34 c -7.42,-4.46 -14.77,-6.72 -22.03,-6.72 -7.42,0 -13.87,2.5 -19.38,7.5 -5.43,5 -8.12,12.89 -8.12,23.75 v 180.93 h -30.63 V 2040 h 69.53 v -206.88 l 95.63,60 v 114.22 h -23.59 V 2040 Z" /><path
         id="path32"
         style="fill:#27396d;fill-opacity:1;fill-rule:nonzero;stroke:none"
         d="m 2261.91,1800 v 33.12 l 132.97,174.22 h -97.5 v -34.06 h -33.12 V 2040 h 172.34 v -34.06 l -132.03,-173.28 h 102.34 v 33.12 h 33.6 V 1800 Z" /><path
         id="path34"
         style="fill:#27396d;fill-opacity:1;fill-rule:nonzero;stroke:none"
         d="M 2677.23,1832.66 V 1800 H 2510.2 c -16.37,0 -27.43,3.16 -33.13,9.53 -5.23,5.82 -7.81,16.72 -7.81,32.66 V 1860 c 0,11.56 1.44,19.41 4.37,23.59 4.14,6.02 13.6,13.52 28.28,22.5 l 105.63,65.79 v 35.46 h -94.06 v -27.81 H 2482.7 V 2040 h 120 c 16.32,0 27.81,-3.55 34.37,-10.62 6.56,-7 9.84,-17.19 9.84,-30.63 v -166.09 z m -69.69,100.78 -99.84,-62.35 v -38.43 h 99.84 z" /><path
         id="path36"
         style="fill:#7cb23a;fill-opacity:1;fill-rule:nonzero;stroke:none"
         d="m 502.77,144.41 v -13.281 c -13.668,-15.43 -27.891,-27.93 -42.649,-37.5001 -14.691,-9.6797 -26.25,-14.5273 -34.691,-14.5273 -7.11,0 -12.621,3.5195 -16.559,10.4687 -3.871,6.8789 -5.781,16.6407 -5.781,29.3787 0,12.692 5.859,29.371 17.648,50 11.883,20.621 28.282,42.731 49.223,66.403 -15.121,-12.301 -30.313,-26.481 -45.621,-42.5 -15.32,-15.942 -32.738,-36.012 -52.192,-60.153 l -3.91,-4.847 C 347.379,101.988 335.199,89.1016 331.68,89.1016 c -1.989,0 -4.059,3.1992 -6.25,9.5273 -2.192,6.3321 -3.282,12.8201 -3.282,19.3831 0,8.199 10.512,27.648 31.563,58.277 21.129,30.699 37.578,59.449 49.379,86.25 -14.07,-9.809 -28.559,-23.09 -43.442,-39.84 -14.808,-16.801 -31.058,-38.211 -48.75,-64.219 -4.378,-6.492 -10,-15 -16.878,-25.628 -15.11,-23.122 -24.961,-34.6918 -29.532,-34.6918 -3.117,0 -6.25,3.0508 -9.367,9.2188 -3.051,6.25 -4.531,12.742 -4.531,19.531 0,5.942 5.93,17.07 17.808,33.442 7.262,10.078 13.051,18.359 17.34,24.847 13.012,20 23.282,37.379 30.782,52.18 7.5,14.891 11.25,25 11.25,30.32 0,1.012 -0.469,1.949 -1.399,2.813 -0.941,0.816 -1.992,1.25 -3.133,1.25 -1.789,0 -5.539,-1.492 -11.25,-4.383 -5.617,-2.93 -13.707,-7.418 -24.218,-13.43 -2.61,-1.57 -6.211,-3.719 -10.782,-6.41 -12.726,-7.5 -20.699,-11.25 -23.898,-11.25 -2.192,0 -3.75,0.473 -4.692,1.41 -0.859,0.93 -1.25,2.531 -1.25,4.84 0,6.25 1.09,13.281 3.282,21.09 2.269,7.891 5,14.07 8.121,18.441 3.211,4.571 7.578,8.95 13.129,13.129 5.621,4.25 9.101,6.403 10.468,6.403 0.313,0 0.622,-0.231 0.942,-0.622 0.39,-0.429 0.621,-0.781 0.621,-1.101 0,-0.43 -0.43,-1.207 -1.25,-2.34 -0.859,-1.059 -1.84,-2.109 -2.973,-3.129 L 269.18,284.262 c 14.449,7.5 27.699,13.508 39.691,18.117 12.07,4.691 20.309,7.031 24.68,7.031 4.57,0 8.789,-3.512 12.66,-10.461 3.949,-6.879 5.937,-13.519 5.937,-19.847 0,-9.063 -3.128,-20.743 -9.378,-35 -6.25,-14.301 -15.071,-29.922 -26.399,-46.872 21.75,29.059 43.039,53.122 63.899,72.18 20.941,19.07 34.851,28.602 41.718,28.602 2.703,0 5.864,-2.313 9.532,-6.883 3.75,-4.609 5.628,-9.68 5.628,-15.309 0,-5.621 -4.027,-16.371 -12.027,-32.191 -7.93,-15.859 -19.07,-35 -33.441,-57.5 28.32,31.449 53.32,56.961 75,76.57 21.761,19.571 35.55,29.371 41.41,29.371 3,0 6.25,-3.242 9.68,-9.691 3.519,-6.481 5.32,-11.949 5.32,-16.399 0,-4.07 -5.078,-12.031 -15.16,-23.91 -6.68,-8.121 -12.149,-14.84 -16.41,-20.16 -16.989,-21.871 -29.801,-41.32 -38.43,-58.281 -8.559,-16.988 -12.82,-31.328 -12.82,-42.969 0,-4.609 0.511,-7.648 1.57,-9.211 1.129,-1.57 3.199,-2.347 6.25,-2.347 4.879,0 12.5,3.277 22.808,9.847 10.391,6.563 21.012,15.031 31.872,25.461 z m 72.851,-3.898 c -13.121,-13.992 -23.98,-24.383 -32.5,-31.25 -8.551,-6.801 -15,-10.1604 -19.371,-10.1604 -3.871,0 -8.828,5.0004 -14.84,15.0004 -6.14,10 -9.219,19.296 -9.219,27.968 0,6.25 2.61,13.282 7.809,21.09 5.199,7.891 12.422,15.668 21.719,23.289 6.953,5.699 14.371,10.821 22.191,15.313 7.891,4.449 16.602,8.437 26.09,11.867 6.641,2.582 12.969,4.691 18.91,6.25 6.012,1.57 10.231,2.351 12.649,2.351 3.211,0 6.41,-1.839 9.531,-5.468 3.211,-3.563 4.851,-6.883 4.851,-10 0,-0.942 -0.39,-1.801 -1.101,-2.5 -0.738,-0.742 -2.18,-1.684 -4.371,-2.813 l -5.469,-3.289 5.16,-10.621 c 0.699,-1.25 1.168,-2.34 1.399,-3.277 0.203,-0.864 0.32,-1.641 0.32,-2.352 0,-2.301 -3.867,-9.019 -11.57,-20.148 -7.61,-11.063 -11.399,-19.653 -11.399,-25.782 0,-2.308 0.699,-4.07 2.18,-5.32 1.57,-1.25 3.75,-1.871 6.57,-1.871 4.141,0 9.41,2.109 15.781,6.41 6.329,4.25 15.348,11.91 27.028,22.961 l 0.312,-12.961 C 627.66,122.891 613.32,108.551 605.309,102.23 c -8.039,-6.2495 -14.918,-9.3784 -20.618,-9.3784 -4.613,0 -8.441,1.7187 -11.57,5.1601 -3.121,3.3203 -4.68,7.5783 -4.68,12.8083 0,4.692 2.34,14.379 7.028,29.059 z m 24.07,51.867 c -32.113,-13.75 -52.89,-24.527 -62.351,-32.34 -9.371,-7.738 -14.059,-16.328 -14.059,-25.777 0,-2.313 0.469,-4.223 1.41,-5.782 0.93,-1.57 2.11,-2.351 3.59,-2.351 4.879,0 14.297,6.293 28.278,18.91 14.062,12.582 28.441,28.359 43.132,47.34 z" /><path
         id="path38"
         style="fill:#7cb23a;fill-opacity:1;fill-rule:nonzero;stroke:none"
         d="m 672.969,130.66 c -3.668,-4.371 -8.199,-10 -13.59,-16.871 -7.617,-9.809 -12.578,-14.6874 -14.848,-14.6874 -2.812,0 -4.883,2.5394 -6.25,7.6604 -1.332,5.187 -2.031,13.316 -2.031,24.367 0,14.769 3.75,29.851 11.25,45.16 7.5,15.313 20.352,34.141 38.59,56.563 15.512,18.828 30.39,34.609 44.691,47.347 14.258,12.692 23.598,19.063 27.969,19.063 1.871,0 3.441,-0.742 4.691,-2.192 1.25,-1.371 1.868,-3.121 1.868,-5.308 0,-6.563 -9.84,-22.782 -29.528,-48.602 -19.609,-25.859 -45.902,-57.031 -78.902,-93.59 l -2.039,-10.621 c 20.082,21.871 38.281,39.289 54.539,52.34 16.32,13.012 27.812,19.531 34.371,19.531 3.75,0 7.07,-1.992 10,-5.941 2.891,-3.859 4.371,-8.277 4.371,-13.277 0,-13.364 -16.172,-31.993 -48.43,-55.942 l -5.632,-4.211 c 3.132,-4.609 5.941,-8.051 8.441,-10.32 2.578,-2.301 4.922,-3.43 7.031,-3.43 4.379,0 11.25,3.473 20.629,10.461 9.449,7.07 20.82,17.352 34.059,30.789 l 0.472,-13.437 C 758.75,127.379 745.469,113.98 734.84,105.352 724.219,96.8398 715.551,92.5391 708.91,92.5391 c -6.488,0 -12.461,2.8906 -17.969,8.5899 -5.429,5.711 -11.41,15.551 -17.972,29.531 z m 11.09,14.539 13.132,-2.347 c 12.688,10.308 21.758,18.359 27.188,24.218 5.5,5.942 8.281,10.551 8.281,13.91 0,0.5 -0.16,0.86 -0.469,1.09 -0.242,0.309 -0.55,0.469 -0.941,0.469 -3.238,0 -9.449,-3.559 -18.59,-10.629 -9.18,-6.988 -18.711,-15.89 -28.601,-26.711 z" /><path
         id="path40"
         style="fill:#7cb23a;fill-opacity:1;fill-rule:nonzero;stroke:none"
         d="m 851.41,157.852 0.309,-13.122 c -14.059,-17.308 -26.02,-29.769 -35.778,-37.351 -9.812,-7.6095 -18.75,-11.3985 -26.882,-11.3985 -8.36,0 -14.84,3.4687 -19.528,10.4685 -4.691,7.071 -7.031,16.871 -7.031,29.371 0,10.942 2.301,20.981 6.879,30.16 4.57,9.25 12.101,19.059 22.652,29.372 5.309,5.386 9.918,9.136 13.91,11.25 4.059,2.187 8.278,3.277 12.649,3.277 3.32,0 5.82,-0.738 7.5,-2.18 1.64,-1.371 2.5,-3.437 2.5,-6.25 0,-5.75 -3.512,-13.25 -10.469,-22.5 -6.871,-9.301 -16.48,-19.179 -28.742,-29.687 -0.629,-2.192 -1.059,-4.063 -1.258,-5.633 -0.23,-1.559 -0.312,-3.039 -0.312,-4.367 0,-4.301 1.293,-7.782 3.91,-10.473 2.691,-2.617 6.172,-3.91 10.472,-3.91 4.688,0 11.329,2.891 20,8.75 8.75,5.82 18.469,13.91 29.219,24.223 z m -29.691,69.058 c 0,6.449 2.582,12.539 7.812,18.289 5.309,5.821 10.938,8.75 16.879,8.75 3,0 5.309,-0.898 6.871,-2.66 1.559,-1.68 2.34,-4.141 2.34,-7.34 0,-5.551 -2.652,-11.488 -7.961,-17.82 -5.32,-6.25 -10.59,-9.367 -15.781,-9.367 -2.93,0 -5.399,0.937 -7.348,2.808 -1.871,1.95 -2.812,4.41 -2.812,7.34 z" /><path
         id="path42"
         style="fill:#7cb23a;fill-opacity:1;fill-rule:nonzero;stroke:none"
         d="m 838.949,146.129 c 7.61,16.883 15,29.609 22.18,38.281 7.269,8.75 14.223,13.129 20.781,13.129 3.949,0 7.391,-0.699 10.32,-2.027 3,-1.371 4.532,-2.891 4.532,-4.532 0,-2 -2.192,-5.902 -6.563,-11.718 -4.379,-5.742 -10.859,-13.442 -19.379,-23.133 -2.422,-2.731 -4.34,-5.617 -5.781,-8.75 -1.367,-3.117 -2.027,-6.168 -2.027,-9.059 v -0.781 c 17.886,20.512 34.879,37.34 50.937,50.473 16.129,13.117 27.18,19.687 33.121,19.687 2.27,0 4.41,-2 6.41,-5.937 2.071,-3.992 3.122,-8.211 3.122,-12.66 0,-5 -3.243,-11.012 -9.692,-17.973 -3.359,-3.551 -5.859,-6.399 -7.5,-8.59 -4.609,-6.168 -8.39,-12.269 -11.398,-18.277 -3.051,-5.942 -4.532,-10.121 -4.532,-12.5 0,-1.992 0.469,-3.563 1.399,-4.692 1.019,-1.05 2.543,-1.558 4.531,-1.558 2.391,0 6.961,2.539 13.75,7.648 6.762,5.078 16.488,13.52 29.219,25.32 l 0.32,-13.441 c -21.371,-23.238 -35.937,-37.809 -43.75,-43.75 -7.82,-5.8202 -14.687,-8.7499 -20.629,-8.7499 -4.691,0 -8.519,1.8711 -11.41,5.6211 -2.93,3.7498 -4.371,8.6408 -4.371,14.6918 0,5.937 2.109,13.32 6.41,22.187 4.25,8.832 10.852,19.449 19.84,31.871 C 905.43,154.488 892.148,140.199 878.949,123.949 865.82,107.77 857.73,99.7305 854.73,99.7305 c -4.691,0 -8.48,3.5075 -11.41,10.6215 -3.011,7.07 -4.531,16.328 -4.531,27.808 0,1.57 0.082,2.969 0.16,4.219 0,1.25 0,2.5 0,3.75 z" /><path
         id="path44"
         style="fill:#7cb23a;fill-opacity:1;fill-rule:nonzero;stroke:none"
         d="m 1042.3,141.129 c -10.23,-11.988 -21.05,-21.988 -32.5,-30 -11.359,-8.039 -19.64,-12.0274 -24.839,-12.0274 -6.051,0 -11.25,3.9884 -15.621,12.0274 -4.379,8.012 -6.57,17.582 -6.57,28.75 0,7.582 2.351,15.351 7.031,23.281 4.687,7.891 11.25,15.199 19.687,21.879 13.132,10.191 24.922,18.051 35.472,23.59 10.63,5.633 19.1,8.441 25.47,8.441 4.37,0 8.32,-0.941 11.87,-2.808 3.52,-1.801 5.32,-3.75 5.32,-5.942 0,-3.75 -2.74,-7.769 -8.13,-12.031 -5.43,-4.301 -15.7,-10.16 -30.78,-17.66 -16.68,-8.43 -28.4,-16.207 -35.159,-23.277 -6.789,-6.993 -10.153,-14.653 -10.153,-22.973 0,-1.867 0.661,-3.43 2.032,-4.68 1.449,-1.25 3.05,-1.879 4.84,-1.879 4.89,0 11.14,2.809 18.75,8.442 7.7,5.699 16.29,14.058 25.78,25 3.32,3.75 7.82,8.937 13.44,15.617 12.19,14.57 20.2,21.883 24.06,21.883 2.08,0 3.95,-1.563 5.63,-4.692 1.64,-3.121 2.5,-6.718 2.5,-10.781 0,-4.488 -2.93,-12.809 -8.75,-25 l -0.31,-0.777 -17.97,-37.192 c 10.62,7.5 19.72,14.258 27.34,20.309 7.58,6.141 14.92,12.543 22.03,19.223 V 144.41 c -7.81,-7.808 -21.32,-19.762 -40.47,-35.781 -10.93,-9.1798 -19.33,-16.2501 -25.15,-21.2501 C 1025.9,66.25 1013.32,48.3984 999.488,33.7891 985.738,19.1016 975.66,11.7617 969.34,11.7617 c -2.192,0 -3.91,0.7774 -5.16,2.3399 -1.328,1.4882 -2.032,3.5195 -2.032,6.0976 0,8.3516 5.313,19.6016 15.942,33.75 10.699,14.0625 25.07,28.5508 43.12,43.4297 3.13,4.3831 6.56,10.3511 10.31,17.9731 3.75,7.699 7.35,16.289 10.78,25.777 z" /><path
         id="path46"
         style="fill:#7cb23a;fill-opacity:1;fill-rule:nonzero;stroke:none"
         d="m 1251.21,140.512 c -13.12,-13.992 -23.98,-24.383 -32.5,-31.25 -8.55,-6.801 -15,-10.1604 -19.37,-10.1604 -3.87,0 -8.83,5.0004 -14.85,15.0004 -6.13,10 -9.22,19.296 -9.22,27.968 0,6.25 2.62,13.282 7.82,21.09 5.19,7.891 12.42,15.668 21.71,23.289 6.96,5.699 14.38,10.821 22.19,15.313 7.89,4.449 16.6,8.437 26.1,11.867 6.64,2.582 12.96,4.691 18.9,6.25 6.02,1.57 10.24,2.351 12.66,2.351 3.2,0 6.4,-1.839 9.53,-5.468 3.2,-3.563 4.84,-6.883 4.84,-10 0,-0.942 -0.39,-1.801 -1.09,-2.5 -0.74,-0.742 -2.19,-1.684 -4.38,-2.813 l -5.46,-3.289 5.15,-10.621 c 0.71,-1.25 1.17,-2.34 1.41,-3.277 0.19,-0.864 0.31,-1.641 0.31,-2.352 0,-2.301 -3.87,-9.019 -11.56,-20.148 -7.62,-11.063 -11.41,-19.653 -11.41,-25.782 0,-2.308 0.71,-4.07 2.19,-5.32 1.56,-1.25 3.75,-1.871 6.56,-1.871 4.14,0 9.42,2.109 15.78,6.41 6.33,4.25 15.36,11.91 27.03,22.961 l 0.32,-12.961 c -20.63,-22.308 -34.96,-36.648 -42.97,-42.969 -8.05,-6.2495 -14.92,-9.3784 -20.63,-9.3784 -4.61,0 -8.43,1.7187 -11.56,5.1601 -3.12,3.3203 -4.69,7.5783 -4.69,12.8083 0,4.692 2.35,14.379 7.03,29.059 z m 24.06,51.867 c -32.11,-13.75 -52.89,-24.527 -62.34,-32.34 -9.38,-7.738 -14.06,-16.328 -14.06,-25.777 0,-2.313 0.47,-4.223 1.4,-5.782 0.94,-1.57 2.11,-2.351 3.6,-2.351 4.88,0 14.29,6.293 28.28,18.91 14.06,12.582 28.44,28.359 43.12,47.34 z" /><path
         id="path48"
         style="fill:#7cb23a;fill-opacity:1;fill-rule:nonzero;stroke:none"
         d="m 1472.11,143.48 c -14.61,-15.121 -26.06,-26.21 -34.38,-33.281 -8.24,-7 -13.86,-10.4685 -16.87,-10.4685 -4.3,0 -8.44,4.7575 -12.5,14.3715 -4.06,9.57 -6.09,20.777 -6.09,33.597 0,6.949 2.26,13.75 6.71,20.313 4.46,6.558 11.33,13.039 20.63,19.527 10.08,7.191 19.73,12.813 28.91,16.871 9.14,4.07 16.56,6.102 22.18,6.102 2.89,0 5.35,-0.59 7.35,-1.723 2.07,-1.059 3.98,-2.769 5.78,-5.16 16.13,27.582 28.63,47.851 37.5,60.781 8.83,13.012 14.72,19.539 17.65,19.539 2.58,0 5,-1.371 7.19,-4.07 2.19,-2.731 3.28,-5.899 3.28,-9.527 0,-7.731 -13.04,-30.231 -39.06,-67.5 l -4.69,-6.403 c -6.05,-8.75 -11.21,-19.929 -15.47,-33.437 -4.29,-13.563 -6.4,-24.653 -6.4,-33.282 0,-1.878 0.55,-3.558 1.72,-5 1.25,-1.492 2.65,-2.191 4.22,-2.191 4.25,0 15.46,8.012 33.59,24.063 5.51,4.878 9.84,8.628 12.97,11.25 v -12.813 l -2.03,-2.187 c -29.92,-33.551 -50.16,-50.3129 -60.78,-50.3129 -5,0 -8.56,1.8007 -10.63,5.3125 -2.11,3.4374 -3.12,9.5704 -3.12,18.4374 0,4.57 0.19,9.102 0.62,13.59 0.39,4.461 0.98,8.992 1.72,13.601 z m 13.59,41.25 c -23.67,-8.75 -39.92,-17.031 -48.75,-24.851 -8.86,-7.731 -13.28,-17.109 -13.28,-28.117 0,-1.801 0.08,-2.973 0.31,-3.602 0.32,-0.621 0.86,-0.93 1.72,-0.93 2.58,0 7.27,2.5 14.07,7.5 6.75,5.071 16.32,13.282 28.75,24.532 0.31,0.308 0.66,0.66 1.09,1.09 7.69,6.878 13.05,15 16.09,24.378 z" /><path
         id="path50"
         style="fill:#7cb23a;fill-opacity:1;fill-rule:nonzero;stroke:none"
         d="m 1622.5,157.852 0.31,-13.122 c -14.06,-17.308 -26.01,-29.769 -35.78,-37.351 -9.8,-7.6095 -18.75,-11.3985 -26.87,-11.3985 -8.36,0 -14.85,3.4687 -19.54,10.4685 -4.68,7.071 -7.03,16.871 -7.03,29.371 0,10.942 2.31,20.981 6.88,30.16 4.57,9.25 12.11,19.059 22.65,29.372 5.32,5.386 9.93,9.136 13.91,11.25 4.06,2.187 8.28,3.277 12.66,3.277 3.32,0 5.82,-0.738 7.5,-2.18 1.64,-1.371 2.5,-3.437 2.5,-6.25 0,-5.75 -3.52,-13.25 -10.47,-22.5 -6.88,-9.301 -16.49,-19.179 -28.75,-29.687 -0.63,-2.192 -1.06,-4.063 -1.25,-5.633 -0.24,-1.559 -0.31,-3.039 -0.31,-4.367 0,-4.301 1.29,-7.782 3.9,-10.473 2.7,-2.617 6.17,-3.91 10.47,-3.91 4.69,0 11.33,2.891 20,8.75 8.75,5.82 18.48,13.91 29.22,24.223 z m -29.69,69.058 c 0,6.449 2.58,12.539 7.81,18.289 5.32,5.821 10.94,8.75 16.88,8.75 3.01,0 5.31,-0.898 6.88,-2.66 1.56,-1.68 2.34,-4.141 2.34,-7.34 0,-5.551 -2.66,-11.488 -7.97,-17.82 -5.31,-6.25 -10.59,-9.367 -15.78,-9.367 -2.93,0 -5.39,0.937 -7.35,2.808 -1.87,1.95 -2.81,4.41 -2.81,7.34 z" /><path
         id="path52"
         style="fill:#7cb23a;fill-opacity:1;fill-rule:nonzero;stroke:none"
         d="m 1675.82,105.352 c 0.08,-0.622 0.16,-1.332 0.16,-2.032 0.07,-0.738 0.15,-1.949 0.15,-3.5895 0,-9.0703 -2.18,-18.6797 -6.56,-28.9102 -4.37,-10.3086 -10.59,-20.2305 -18.59,-29.8398 -7.43,-8.9492 -15.39,-16.4492 -23.91,-22.5 -8.44,-6.0196 -14.77,-9.07034 -19.06,-9.07034 -4.26,0 -7.97,3.67964 -11.1,10.94144 -3.2,7.3086 -4.84,16.25 -4.84,26.8789 0,9.1797 2.19,19.9179 6.56,32.1797 4.3,12.1914 10.47,25.3598 18.6,39.5388 -2.39,2.571 -4.11,5.192 -5.16,7.813 -1.13,2.578 -1.72,5.617 -1.72,9.058 0,7.379 1.72,13.129 5.16,17.192 3.44,4.136 8.2,6.25 14.37,6.25 1.02,0 2.07,-0.082 3.13,-0.16 1.13,0 2.34,-0.082 3.59,-0.153 4.26,5.821 10.67,16.012 19.22,30.621 l 2.66,4.379 c 13.12,28.321 25.15,50.699 36.09,67.18 11.02,16.449 19.41,24.691 25.16,24.691 1.87,0 3.32,-1.05 4.37,-3.121 1.02,-2 1.56,-4.687 1.56,-8.129 0,-10.121 -2.26,-20.39 -6.71,-30.781 -4.5,-10.43 -13.4,-24.488 -26.72,-42.187 -0.43,-0.622 -1.53,-2.114 -3.28,-4.372 -13.05,-17 -25,-34.808 -35.94,-53.441 3.51,-3.238 6.76,-6.801 9.69,-10.629 2.89,-3.859 5.5,-7.93 7.81,-12.18 8.75,5 17.26,10.54 25.62,16.719 8.32,6.25 16.29,12.961 23.91,20.153 l -0.31,-13.442 c -8.36,-10 -16.18,-18.238 -23.44,-24.68 -7.19,-6.371 -14.02,-11.179 -20.47,-14.378 z m -42.19,0.628 c -5.23,-8.8316 -9.06,-17.3902 -11.56,-25.6284 -2.5,-8.2032 -3.75,-16.1719 -3.75,-23.9024 0,-3.0078 0.31,-6.1406 0.94,-9.3789 0.54,-3.3203 1.4,-6.6406 2.65,-10 7.19,2.6211 13.83,9.8086 20,21.5586 6.25,11.8008 9.38,23.4024 9.38,34.8516 0,1.5586 -0.08,2.8906 -0.16,3.8984 0,1.0625 -0.08,2.1094 -0.15,3.2811 -3.25,0.711 -6.33,1.488 -9.22,2.352 -2.81,0.937 -5.55,1.91 -8.13,2.968 z" /><path
         id="path54"
         style="fill:#7cb23a;fill-opacity:1;fill-rule:nonzero;stroke:none"
         d="m 1773.67,105.352 c 0.08,-0.622 0.16,-1.332 0.16,-2.032 0.08,-0.738 0.15,-1.949 0.15,-3.5895 0,-9.0703 -2.18,-18.6797 -6.56,-28.9102 -4.37,-10.3086 -10.58,-20.2305 -18.59,-29.8398 -7.42,-8.9492 -15.39,-16.4492 -23.91,-22.5 -8.44,-6.0196 -14.76,-9.07034 -19.06,-9.07034 -4.26,0 -7.97,3.67964 -11.09,10.94144 -3.21,7.3086 -4.85,16.25 -4.85,26.8789 0,9.1797 2.19,19.9179 6.56,32.1797 4.3,12.1914 10.47,25.3598 18.6,39.5388 -2.38,2.571 -4.1,5.192 -5.16,7.813 -1.13,2.578 -1.72,5.617 -1.72,9.058 0,7.379 1.72,13.129 5.16,17.192 3.44,4.136 8.2,6.25 14.37,6.25 1.02,0 2.07,-0.082 3.13,-0.16 1.13,0 2.34,-0.082 3.59,-0.153 4.26,5.821 10.67,16.012 19.22,30.621 l 2.66,4.379 c 13.12,28.321 25.15,50.699 36.09,67.18 11.02,16.449 19.42,24.691 25.16,24.691 1.87,0 3.32,-1.05 4.37,-3.121 1.02,-2 1.57,-4.687 1.57,-8.129 0,-10.121 -2.27,-20.39 -6.72,-30.781 -4.5,-10.43 -13.4,-24.488 -26.72,-42.187 -0.43,-0.622 -1.53,-2.114 -3.28,-4.372 -13.05,-17 -25,-34.808 -35.94,-53.441 3.52,-3.238 6.76,-6.801 9.69,-10.629 2.89,-3.859 5.5,-7.93 7.81,-12.18 8.75,5 17.26,10.54 25.62,16.719 8.32,6.25 16.29,12.961 23.91,20.153 l -0.31,-13.442 c -8.36,-10 -16.17,-18.238 -23.44,-24.68 -7.19,-6.371 -14.02,-11.179 -20.47,-14.378 z m -42.19,0.628 c -5.23,-8.8316 -9.06,-17.3902 -11.56,-25.6284 -2.5,-8.2032 -3.75,-16.1719 -3.75,-23.9024 0,-3.0078 0.31,-6.1406 0.94,-9.3789 0.55,-3.3203 1.41,-6.6406 2.66,-10 7.18,2.6211 13.82,9.8086 20,21.5586 6.25,11.8008 9.37,23.4024 9.37,34.8516 0,1.5586 -0.08,2.8906 -0.16,3.8984 0,1.0625 -0.07,2.1094 -0.15,3.2811 -3.24,0.711 -6.33,1.488 -9.22,2.352 -2.81,0.937 -5.55,1.91 -8.13,2.968 z" /><path
         id="path56"
         style="fill:#7cb23a;fill-opacity:1;fill-rule:nonzero;stroke:none"
         d="m 1832.62,143.789 v -1.41 c 0,-6.789 1.76,-12.149 5.31,-16.09 3.52,-3.988 8.28,-5.937 14.22,-5.937 7.69,0 17.07,3.277 28.12,9.847 11.02,6.563 22.66,15.781 34.85,27.653 V 144.73 c -15.74,-17.5 -29.77,-30.281 -42.03,-38.281 -12.31,-7.8982 -24.03,-11.8787 -35.16,-11.8787 -10.94,0 -19.34,3.4414 -25.16,10.3087 -5.82,6.961 -8.75,16.961 -8.75,30 0,9.57 2.31,18.91 6.88,27.973 4.49,9.058 11.09,17.808 19.84,26.25 8.83,8.32 17.97,14.609 27.35,18.91 9.45,4.367 18.94,6.558 28.43,6.558 7.19,0 12.54,-1.09 16.1,-3.281 3.51,-2.109 5.31,-5.391 5.31,-9.84 0,-10.238 -7.31,-21.097 -21.88,-32.66 -14.49,-11.559 -32.3,-19.918 -53.43,-25 z m 1.25,12.973 c 15.82,7.187 28.28,14.136 37.34,20.937 9.06,6.75 13.59,12.422 13.59,17.031 0,1.25 -0.23,2.11 -0.62,2.649 -0.31,0.512 -0.78,0.781 -1.41,0.781 -6.25,0 -14.45,-3.98 -24.53,-11.871 -10,-7.93 -18.12,-17.769 -24.37,-29.527 z" /><path
         id="path58"
         style="fill:#7cb23a;fill-opacity:1;fill-rule:nonzero;stroke:none"
         d="m 1901.64,131.449 -4.06,10.313 20.31,19.84 c -2.42,1.449 -4.18,3.007 -5.31,4.687 -1.25,1.762 -1.88,3.672 -1.88,5.781 0,7.891 4.73,16.91 14.22,27.032 9.46,10.078 17.35,15.16 23.6,15.16 0.93,0 1.75,-0.391 2.5,-1.102 0.82,-0.738 1.25,-1.64 1.25,-2.648 0,-0.742 -0.32,-1.84 -0.94,-3.282 -0.55,-1.492 -1.37,-3.359 -2.5,-5.628 l 24.84,1.718 c 0.63,0 1.41,0.039 2.35,0.16 3.82,0.192 6.56,0.309 8.12,0.309 5.2,0 9.06,-1.641 11.56,-4.84 2.5,-3.25 3.75,-8.211 3.75,-14.847 0,-2.5 -2.57,-6.09 -7.65,-10.782 -3.13,-2.73 -5.55,-4.961 -7.19,-6.718 -5.63,-6.051 -10.27,-12.34 -13.91,-18.903 -3.67,-6.488 -5.47,-11.679 -5.47,-15.629 0,-2.929 0.63,-5.16 1.88,-6.718 1.33,-1.481 3.32,-2.192 5.94,-2.192 3,0 7.81,2.43 14.37,7.352 6.64,5 17.38,14.218 32.19,27.648 v -13.121 c -16.49,-18.051 -29.81,-31.168 -40,-39.379 -10.23,-8.1209 -18.28,-12.1795 -24.22,-12.1795 -5.31,0 -9.84,2.2578 -13.59,6.7185 -3.75,4.449 -5.63,10.031 -5.63,16.711 0,8.32 2.27,16.719 6.88,25.16 4.68,8.442 12.57,18.442 23.75,30 -7,-1.679 -12.82,-2.929 -17.5,-3.75 -4.61,-0.859 -8.91,-1.519 -12.97,-2.031 l -3.91,-4.379 c -15.43,-16.25 -25.66,-26.398 -30.78,-30.461 z" /><path
         id="path60"
         style="fill:#7cb23a;fill-opacity:1;fill-rule:nonzero;stroke:none"
         d="m 2033.59,143.789 v -1.41 c 0,-6.789 1.76,-12.149 5.32,-16.09 3.51,-3.988 8.28,-5.937 14.21,-5.937 7.7,0 17.08,3.277 28.13,9.847 11.02,6.563 22.66,15.781 34.84,27.653 V 144.73 c -15.74,-17.5 -29.76,-30.281 -42.03,-38.281 -12.3,-7.8982 -24.02,-11.8787 -35.15,-11.8787 -10.94,0 -19.34,3.4414 -25.16,10.3087 -5.82,6.961 -8.75,16.961 -8.75,30 0,9.57 2.3,18.91 6.88,27.973 4.49,9.058 11.09,17.808 19.84,26.25 8.83,8.32 17.97,14.609 27.34,18.91 9.46,4.367 18.95,6.558 28.44,6.558 7.19,0 12.54,-1.09 16.09,-3.281 3.52,-2.109 5.32,-5.391 5.32,-9.84 0,-10.238 -7.31,-21.097 -21.88,-32.66 -14.49,-11.559 -32.3,-19.918 -53.44,-25 z m 1.25,12.973 c 15.82,7.187 28.28,14.136 37.35,20.937 9.06,6.75 13.59,12.422 13.59,17.031 0,1.25 -0.23,2.11 -0.62,2.649 -0.32,0.512 -0.78,0.781 -1.41,0.781 -6.25,0 -14.45,-3.98 -24.53,-11.871 -10,-7.93 -18.13,-17.769 -24.38,-29.527 z" /><path
         id="path62"
         style="fill:#7cb23a;fill-opacity:1;fill-rule:nonzero;stroke:none"
         d="m 2103.4,146.129 c 7.62,16.883 15,29.609 22.19,38.281 7.26,8.75 14.21,13.129 20.78,13.129 3.94,0 7.38,-0.699 10.31,-2.027 3.01,-1.371 4.53,-2.891 4.53,-4.532 0,-2 -2.19,-5.902 -6.56,-11.718 -4.38,-5.742 -10.86,-13.442 -19.38,-23.133 -2.42,-2.731 -4.33,-5.617 -5.78,-8.75 -1.37,-3.117 -2.03,-6.168 -2.03,-9.059 v -0.781 c 17.89,20.512 34.88,37.34 50.94,50.473 16.13,13.117 27.19,19.687 33.12,19.687 2.27,0 4.42,-2 6.41,-5.937 2.07,-3.992 3.12,-8.211 3.12,-12.66 0,-5 -3.24,-11.012 -9.68,-17.973 -3.36,-3.551 -5.86,-6.399 -7.5,-8.59 -4.61,-6.168 -8.4,-12.269 -11.41,-18.277 -3.05,-5.942 -4.53,-10.121 -4.53,-12.5 0,-1.992 0.47,-3.563 1.41,-4.692 1.01,-1.05 2.54,-1.558 4.53,-1.558 2.38,0 6.95,2.539 13.75,7.648 6.76,5.078 16.48,13.52 29.22,25.32 l 0.31,-13.441 c -21.37,-23.238 -35.94,-37.809 -43.75,-43.75 -7.81,-5.8202 -14.69,-8.7499 -20.63,-8.7499 -4.68,0 -8.51,1.8711 -11.4,5.6211 -2.93,3.7498 -4.38,8.6408 -4.38,14.6918 0,5.937 2.11,13.32 6.41,22.187 4.26,8.832 10.86,19.449 19.84,31.871 -13.36,-12.422 -26.64,-26.711 -39.84,-42.961 -13.13,-16.179 -21.21,-24.2185 -24.22,-24.2185 -4.69,0 -8.48,3.5075 -11.41,10.6215 -3,7.07 -4.53,16.328 -4.53,27.808 0,1.57 0.08,2.969 0.16,4.219 0,1.25 0,2.5 0,3.75 z" /><path
         id="path64"
         style="fill:#7cb23a;fill-opacity:1;fill-rule:nonzero;stroke:none"
         d="m 2333.48,157.852 0.31,-13.122 c -15.31,-17.429 -29.14,-30.589 -41.41,-39.531 -12.3,-8.8279 -22.73,-13.2888 -31.25,-13.2888 -8.43,0 -16.05,4.8086 -22.81,14.3788 -6.76,9.57 -10.16,20.551 -10.16,32.973 0,9.367 2.46,18.508 7.35,27.5 4.88,8.937 12.07,17.34 21.56,25.148 8.32,7.07 17.11,12.82 26.41,17.192 9.37,4.449 16.95,6.718 22.81,6.718 4.88,0 8.44,-1.019 10.62,-2.968 2.27,-1.872 3.44,-4.961 3.44,-9.223 0,-7.809 -3.83,-16.52 -11.4,-26.09 -7.5,-9.488 -13.68,-14.219 -18.44,-14.219 -1.99,0 -3.52,0.782 -4.53,2.34 -0.94,1.57 -1.53,4.11 -1.72,7.66 -8.13,-4.8 -15.08,-9.691 -20.78,-14.691 -5.75,-5 -10.32,-10.078 -13.75,-15.149 v -2.968 c 0,-6.371 1.6,-11.371 4.84,-15 3.2,-3.672 7.7,-5.473 13.44,-5.473 8.51,0 18.16,3.051 28.9,9.223 10.71,6.25 22.89,15.777 36.57,28.59 z" /><path
         id="path66"
         style="fill:#7cb23a;fill-opacity:1;fill-rule:nonzero;stroke:none"
         d="m 2348.24,143.789 v -1.41 c 0,-6.789 1.76,-12.149 5.31,-16.09 3.52,-3.988 8.29,-5.937 14.22,-5.937 7.7,0 17.07,3.277 28.13,9.847 11.01,6.563 22.65,15.781 34.84,27.653 V 144.73 c -15.74,-17.5 -29.76,-30.281 -42.03,-38.281 -12.3,-7.8982 -24.02,-11.8787 -35.16,-11.8787 -10.93,0 -19.33,3.4414 -25.15,10.3087 -5.82,6.961 -8.75,16.961 -8.75,30 0,9.57 2.3,18.91 6.87,27.973 4.5,9.058 11.1,17.808 19.85,26.25 8.83,8.32 17.97,14.609 27.34,18.91 9.45,4.367 18.95,6.558 28.44,6.558 7.19,0 12.54,-1.09 16.09,-3.281 3.52,-2.109 5.31,-5.391 5.31,-9.84 0,-10.238 -7.3,-21.097 -21.87,-32.66 -14.49,-11.559 -32.3,-19.918 -53.44,-25 z m 1.25,12.973 c 15.82,7.187 28.28,14.136 37.35,20.937 9.06,6.75 13.59,12.422 13.59,17.031 0,1.25 -0.23,2.11 -0.63,2.649 -0.31,0.512 -0.78,0.781 -1.4,0.781 -6.25,0 -14.45,-3.98 -24.53,-11.871 -10,-7.93 -18.13,-17.769 -24.38,-29.527 z" /></g></g></svg>